# xmcd
#
# Track frame offsets:
#	150
#	9320
#	23042
#	37170
#	49212
#	66427
#	78162
#	93025
#	100930
#	113290
#	127837
#	144305
#	161432
#	173845
#	186840
#	202997
#	215570
#	222655
#	235925
#	248892
#	264625
#	274517
#	289022
#	303712
#	312030
#	322607
#
# Disc length: 4472 seconds
#
# Revision: 0
# Processed by: cddbd v1.4PL0 Copyright (c) Steve Scherf et al.
# Submitted via: audiograbber 1.81.03
#
DISCID=6211761a
DTITLE=Glenn Miller - The Sounds of Glenn Miller
DYEAR=1900
DGENRE=Blues
TTITLE0=Over there
TTITLE1=Song of the Volga boatmen
TTITLE2=That old black magic
TTITLE3=I've got a gal in my Kalamazoo
TTITLE4=Glen island special
TTITLE5=Baby me
TTITLE6=King's march
TTITLE7=Slumber song
TTITLE8=Pin ball Paul
TTITLE9=The chestnut tree
TTITLE10=Tuxedo junction
TTITLE11=I dreamt I dwelt in Harlem
TTITLE12=Georgia on my mind
TTITLE13=In the mood
TTITLE14=American patrol
TTITLE15=Little brown jug
TTITLE16=My blue heaven
TTITLE17=April in Paris
TTITLE18=The little man who wasn't there
TTITLE19=Begin the beguine
TTITLE20=Serinade in blue
TTITLE21=A string of pearls
TTITLE22=Pennsylvania 6-5000
TTITLE23=Blues in my heart
TTITLE24=Enlisted men's mess
TTITLE25=Everybody loves my baby
EXTD=Part of the Diamond Collection
EXTT0=
EXTT1=
EXTT2=
EXTT3=
EXTT4=
EXTT5=
EXTT6=
EXTT7=
EXTT8=
EXTT9=
EXTT10=
EXTT11=
EXTT12=
EXTT13=
EXTT14=
EXTT15=
EXTT16=
EXTT17=
EXTT18=
EXTT19=
EXTT20=
EXTT21=
EXTT22=
EXTT23=
EXTT24=
EXTT25=
PLAYORDER=
